HIERARCHY
ROOT SpineBase
{
  OFFSET 0.000000 0.000000 0.000000
  CHANNELS 6 Xposition Yposition Zposition Zrotation Xrotation Yrotation
  JOINT SpineMid
  {
    OFFSET -0.000000 30.931679 0.000000
    CHANNELS 3 Zrotation Xrotation Yrotation
    JOINT SpineShoulder
    {
      OFFSET 0.141143 22.979101 -0.740430
      CHANNELS 3 Zrotation Xrotation Yrotation
      JOINT Neck
      {
        OFFSET 0.076956 7.596803 -0.565658
        CHANNELS 3 Zrotation Xrotation Yrotation
        JOINT Head
        {
          OFFSET -6.809353 12.144533 1.040771
          CHANNELS 3 Zrotation Xrotation Yrotation
          End Site
          {
            OFFSET 0 0 0
          }
        }
      }
      JOINT ShoulderLeft
      {
        OFFSET -14.316860 -2.555510 9.947833
        CHANNELS 3 Zrotation Xrotation Yrotation
        JOINT ElbowLeft
        {
          OFFSET -2.335460 -24.730265 1.332865
          CHANNELS 3 Zrotation Xrotation Yrotation
          JOINT WristLeft
          {
            OFFSET 0.647690 -24.718927 -4.544348
            CHANNELS 3 Zrotation Xrotation Yrotation
            JOINT HandLeft
            {
              OFFSET -0.145731 -6.469085 -1.514785
              CHANNELS 3 Zrotation Xrotation Yrotation
              JOINT HandTipLeft
              {
                OFFSET 0.626433 -6.068894 -1.961448
                CHANNELS 3 Zrotation Xrotation Yrotation
                End Site
                {
                  OFFSET 0 0 0
                }
              }
              JOINT ThumbLeft
              {
                OFFSET 5.484482 0.760958 -5.031219
                CHANNELS 3 Zrotation Xrotation Yrotation
                End Site
                {
                  OFFSET 0 0 0
                }
              }
            }
          }
        }
      }
      JOINT ShoulderRight
      {
        OFFSET 10.585636 -4.249211 -12.557609
        CHANNELS 3 Zrotation Xrotation Yrotation
        JOINT ElbowRight
        {
          OFFSET 4.741836 -24.308222 -4.905176
          CHANNELS 3 Zrotation Xrotation Yrotation
          JOINT WristRight
          {
            OFFSET -9.092146 -23.080516 -3.490487
            CHANNELS 3 Zrotation Xrotation Yrotation
            JOINT HandRight
            {
              OFFSET -5.250889 -8.268306 0.663418
              CHANNELS 3 Zrotation Xrotation Yrotation
              JOINT HandTipRight
              {
                OFFSET -7.386577 -3.535038 -2.192720
                CHANNELS 3 Zrotation Xrotation Yrotation
                End Site
                {
                  OFFSET 0 0 0
                }
              }
              JOINT ThumbRight
              {
                OFFSET 5.177091 -4.546536 4.600972
                CHANNELS 3 Zrotation Xrotation Yrotation
                End Site
                {
                  OFFSET 0 0 0
                }
              }
            }
          }
        }
      }
    }
  }
  JOINT HipLeft
  {
    OFFSET -5.046509 -0.739236 1.385142
    CHANNELS 3 Zrotation Xrotation Yrotation
    JOINT KneeLeft
    {
      OFFSET 3.974881 -34.555264 5.200679
      CHANNELS 3 Zrotation Xrotation Yrotation
      JOINT AnkleLeft
      {
        OFFSET 9.874324 -33.872059 3.721709
        CHANNELS 3 Zrotation Xrotation Yrotation
        JOINT FootLeft
        {
          OFFSET -2.228995 -7.960845 -2.889852
          CHANNELS 3 Zrotation Xrotation Yrotation
          End Site
          {
            OFFSET 0 0 0
          }
        }
      }
    }
  }
  JOINT HipRight
  {
    OFFSET 5.939685 2.321354 -8.343126
    CHANNELS 3 Zrotation Xrotation Yrotation
    JOINT KneeRight
    {
      OFFSET 8.632752 -36.632373 1.588047
      CHANNELS 3 Zrotation Xrotation Yrotation
      JOINT AnkleRight
      {
        OFFSET 5.681574 -34.300703 4.077180
        CHANNELS 3 Zrotation Xrotation Yrotation
        JOINT FootRight
        {
          OFFSET -2.092426 -7.994991 -4.314357
          CHANNELS 3 Zrotation Xrotation Yrotation
          End Site
          {
            OFFSET 0 0 0
          }
        }
      }
    }
  }
}
MOTION
Frames: 12
Frame Time: 0.033333
-45.053587 78.540331 345.391150 0.000000 0.000000 41.524871 -0.000000 0.000000 -41.524871 -0.000000 0.000000 0.000000 -0.000000 0.000000 0.000000 0.000000 0.000000 0.000000 -0.000000 0.000000 0.000000 -0.000000 0.000000 0.000000 -0.000000 0.000000 0.000000 -0.000000 0.000000 0.000000 0.000000 0.000000 0.000000 0.000000 0.000000 0.000000 -0.000000 0.000000 0.000000 -0.000000 0.000000 0.000000 -0.000000 0.000000 0.000000 -0.000000 0.000000 0.000000 0.000000 0.000000 0.000000 0.000000 0.000000 0.000000 -0.000000 0.000000 -41.524871 -0.000000 0.000000 0.000000 -0.000000 0.000000 0.000000 0.000000 0.000000 0.000000 -0.000000 0.000000 -41.524871 -0.000000 0.000000 0.000000 -0.000000 0.000000 0.000000 0.000000 0.000000 0.000000
-45.153491 78.530408 345.276918 -0.107821 0.061475 41.720157 0.039567 -0.117639 -41.720058 -0.000000 0.000000 0.000000 -0.000000 0.000000 0.000000 0.000000 0.000000 0.000000 -0.000000 0.000000 0.000000 -0.000000 0.000000 0.000000 0.436521 -0.775563 -0.081926 -0.223213 -2.027390 -0.269860 0.000000 0.000000 0.000000 0.000000 0.000000 0.000000 -0.000000 0.000000 0.000000 -0.000000 0.000000 0.000000 0.923305 1.058623 -0.610326 1.893587 -2.169453 1.344122 0.000000 0.000000 0.000000 0.000000 0.000000 0.000000 0.039567 -0.117639 -41.720058 0.457306 1.003262 0.338651 -5.340010 -10.298797 3.605812 0.000000 0.000000 0.000000 0.039567 -0.117639 -41.720058 -0.000000 0.000000 0.000000 -0.542292 -0.950263 0.538588 0.000000 0.000000 0.000000
-45.250302 78.518127 345.184635 -0.204973 0.104118 41.860297 0.083180 -0.214326 -41.859955 -0.000000 0.000000 0.000000 -0.000000 0.000000 0.000000 0.000000 0.000000 0.000000 -0.000000 0.000000 0.000000 0.011801 1.201208 0.029126 0.759708 -2.532643 -0.155476 -0.464946 -3.650748 -0.452348 0.000000 0.000000 0.000000 0.000000 0.000000 0.000000 -0.000000 0.000000 0.000000 -0.000000 0.000000 0.000000 1.729705 2.086727 -1.231616 3.930060 -4.195035 2.775771 0.000000 0.000000 0.000000 0.000000 0.000000 0.000000 0.083180 -0.214326 -41.859955 0.741001 1.727535 0.573757 -10.302208 -19.179428 6.209352 0.000000 0.000000 0.000000 0.083180 -0.214326 -41.859955 -0.000000 0.000000 0.000000 -1.009106 -1.822622 1.011888 0.000000 0.000000 0.000000
-45.344019 78.503489 345.114301 -0.291431 0.127919 41.945427 0.131259 -0.289942 -41.944770 -0.000000 0.000000 0.000000 -0.186665 -0.734848 -0.397810 0.000000 0.000000 0.000000 -0.418793 -0.711493 0.041992 0.446525 2.294164 -0.011273 0.991484 -3.269433 -0.195017 -0.728645 -4.846599 -0.552050 0.000000 0.000000 0.000000 0.000000 0.000000 0.000000 -0.000000 0.000000 0.000000 -0.000000 0.000000 0.000000 2.389288 3.067054 -1.848771 6.129634 -6.048255 4.269737 0.000000 0.000000 0.000000 0.000000 0.000000 0.000000 0.131259 -0.289942 -41.944770 0.866149 2.192420 0.717723 -14.757914 -25.507774 7.765880 0.000000 0.000000 0.000000 0.131259 -0.289942 -41.944770 -0.000000 0.000000 0.000000 -1.399958 -2.610759 1.419844 0.000000 0.000000 0.000000
-45.434643 78.486493 345.065915 -0.367177 0.132879 41.975620 0.184103 -0.344358 -41.974641 -0.000000 0.000000 0.000000 -0.249773 -0.867902 -0.467996 0.000000 0.000000 0.000000 -0.529158 -0.948987 0.056670 0.577757 2.767617 -0.027784 1.135251 -3.670953 -0.219142 -1.015568 -5.610356 -0.572901 0.000000 0.000000 0.000000 0.000000 0.000000 0.000000 -0.000000 0.000000 0.000000 -0.000000 0.000000 0.000000 2.872062 3.982081 -2.444636 8.509768 -7.703367 5.795410 0.000000 0.000000 0.000000 0.000000 0.000000 0.000000 0.184103 -0.344358 -41.974641 0.843061 2.413079 0.778558 -18.606611 -28.740668 8.500164 0.000000 0.000000 0.000000 0.184103 -0.344358 -41.974641 -0.000000 0.000000 0.000000 -1.714639 -3.309283 1.762581 0.000000 0.000000 0.000000
-45.522173 78.467140 345.039477 -0.432199 0.119006 41.950880 0.241885 -0.377427 -41.949635 -0.000000 0.000000 0.000000 -0.313027 -0.945669 -0.507131 0.000000 0.000000 0.000000 -0.624857 -1.186602 0.071838 0.700059 3.095698 -0.050593 1.194481 -3.741201 -0.231755 -1.325621 -5.949516 -0.517790 0.000000 0.000000 0.000000 0.000000 0.000000 0.000000 -0.000000 0.000000 0.000000 0.729003 -0.472488 0.079133 2.429573 5.283260 -3.100286 11.083814 -9.138758 7.316886 0.000000 0.000000 0.000000 0.000000 0.000000 0.000000 0.241885 -0.377427 -41.949635 0.678025 2.400504 0.760614 -21.713710 -28.715796 8.754898 0.000000 0.000000 0.000000 0.470193 -1.217181 -42.025854 -0.731798 0.470940 0.082404 -1.953141 -3.913698 2.040325 0.000000 0.000000 0.000000
-45.638330 78.426381 345.055333 -0.523008 0.065924 41.804630 0.345924 -0.397770 -41.803128 -0.000000 0.000000 0.000000 -0.435737 -0.997809 -0.527445 0.000000 0.000000 0.000000 -0.809900 -1.639270 0.099438 1.089264 3.496815 -0.136243 0.663058 -4.046686 -0.124995 -1.000239 -4.966271 -0.540194 0.000000 0.000000 0.000000 0.000000 0.000000 0.000000 -0.000000 0.000000 0.000000 0.915570 -0.615380 0.109304 3.751812 5.186648 -2.953137 13.606543 -9.783765 7.530750 0.000000 0.000000 0.000000 0.000000 0.000000 0.000000 1.131561 -0.601116 -41.644976 -0.460968 1.602758 0.447807 -24.252095 -23.501266 8.874064 0.000000 0.000000 0.000000 0.731251 -1.314487 -41.858835 -0.166076 1.155435 0.262568 -0.675092 -9.624089 2.176046 0.000000 0.000000 0.000000
-45.815099 78.379602 345.131623 -0.699649 -0.040505 41.694793 0.549378 -0.435130 -41.692954 -0.000000 0.000000 0.000000 -0.449422 -0.868790 -0.453315 0.000000 0.000000 0.000000 -0.931168 -2.075759 0.128769 1.302834 3.515251 -0.209058 0.885104 -2.767071 -0.192449 -2.668152 -2.300608 0.356481 0.000000 0.000000 0.000000 0.000000 0.000000 0.000000 -0.000000 0.000000 0.000000 2.207303 -1.440840 0.264033 1.619922 5.674924 -2.898350 19.635881 -11.001989 10.851115 0.000000 0.000000 0.000000 0.000000 0.000000 0.000000 1.600541 -0.792314 -41.478164 -1.391735 0.821624 0.117801 -23.374756 -14.561218 8.657550 0.000000 0.000000 0.000000 1.208926 -1.442715 -41.705650 -0.334996 1.086022 0.242841 -1.283619 -8.879590 2.172258 0.000000 0.000000 0.000000
-45.816996 78.342425 345.109931 -0.623949 -0.020790 41.810926 0.478926 -0.400471 -41.809366 -0.000000 0.000000 0.000000 -0.562197 -0.675253 -0.334836 0.000000 0.000000 0.000000 -0.950542 -2.204960 0.138479 1.105137 3.527254 -0.174393 0.970184 -0.013654 -0.286666 -4.268946 -3.495609 0.951574 0.000000 0.000000 0.000000 0.000000 0.000000 0.000000 -0.000000 0.000000 0.000000 2.144785 -2.468848 0.701989 3.322531 5.067876 -2.259320 18.392787 -10.045936 9.105358 0.000000 0.000000 0.000000 0.000000 0.000000 0.000000 1.508381 -0.831681 -41.597703 -1.994490 0.147336 -0.161636 -20.622212 -7.423924 8.040322 0.000000 0.000000 0.000000 1.035754 -1.491434 -41.854702 -0.284729 1.228153 0.278652 -6.778594 -0.458565 2.769906 0.000000 0.000000 0.000000
-45.673296 78.311542 345.005184 -0.358182 0.081532 41.294818 0.215308 -0.297632 -41.294004 -0.000000 0.000000 0.000000 -0.575826 -0.594589 -0.287964 0.000000 0.000000 0.000000 -0.828682 -2.017925 0.131115 0.617602 3.200120 -0.079355 1.700025 0.854294 -0.455711 -5.154074 -2.349969 1.390727 0.000000 0.000000 0.000000 0.000000 0.000000 0.000000 0.241136 -1.090013 -0.259393 0.507013 -0.582160 0.810245 0.788995 8.181276 -4.745228 19.678452 -11.126541 9.202069 0.000000 0.000000 0.000000 0.000000 0.000000 0.000000 0.920028 -0.800171 -41.147701 -2.507672 -0.357876 -0.409077 -19.826494 -3.412480 8.221145 0.000000 0.000000 0.000000 0.600958 -1.261917 -41.359239 -0.247539 1.050624 0.242226 -7.745344 3.014639 2.761096 0.000000 0.000000 0.000000
-45.538258 78.464932 344.968653 -0.169442 0.018470 40.999717 0.115763 -0.125103 -40.999563 -0.000000 0.000000 0.000000 -0.000000 0.000000 0.000000 0.000000 0.000000 0.000000 -0.750262 -2.108078 0.144630 0.368826 3.144989 -0.055883 2.063412 1.242916 -0.539223 -3.847793 -1.777043 1.092654 0.000000 0.000000 0.000000 0.000000 0.000000 0.000000 2.138694 -3.196187 -0.997549 -4.701478 4.969906 0.936067 -7.243486 20.135831 -12.435926 32.187662 -17.966939 22.203063 0.000000 0.000000 0.000000 0.000000 0.000000 0.000000 0.115763 -0.125103 -40.999563 -1.050362 0.561682 0.053651 -23.192905 -5.957684 8.611610 0.000000 0.000000 0.000000 0.115763 -0.125103 -40.999563 -0.000000 0.000000 0.000000 -9.441158 9.402795 3.205667 0.000000 0.000000 0.000000
-45.394330 78.696481 345.020897 0.094959 -0.145127 40.362679 0.021633 0.172078 -40.362592 -0.000000 0.000000 0.000000 0.093876 -0.916823 -0.521475 0.000000 0.000000 0.000000 -0.647861 -2.220314 0.161979 0.654624 2.218330 -0.187208 2.367539 1.548268 -0.619653 -5.256499 -2.803194 1.266852 0.000000 0.000000 0.000000 0.000000 0.000000 0.000000 3.850506 -2.254558 -1.138368 -12.031900 10.536427 0.066905 -13.273650 27.968580 -17.487499 44.388877 -19.805002 29.512008 0.000000 0.000000 0.000000 0.000000 0.000000 0.000000 0.021633 0.172078 -40.362592 -1.375713 0.110342 -0.118099 -19.622972 -3.552438 7.779111 0.000000 0.000000 0.000000 0.021633 0.172078 -40.362592 -0.000000 0.000000 0.000000 -12.463949 16.196150 3.857751 0.000000 0.000000 0.000000
